<svg xmlns="http://www.w3.org/2000/svg" width="24" height="24" viewBox="0 0 24 24" fill="none" stroke="#3B82F6" stroke-width="2" stroke-linecap="round" stroke-linejoin="round">
  <path d="M19 14a1 1 0 0 0-1-1h-2a1 1 0 0 0-1 1v.5a1 1 0 0 0 1 1h2a1 1 0 0 0 1-1V14Z"></path>
  <path d="M11 12a1 1 0 0 0-1-1H8a1 1 0 0 0-1 1v.5a1 1 0 0 0 1 1h2a1 1 0 0 0 1-1V12Z"></path>
  <path d="M19 16.5a1 1 0 0 0-1-1h-2a1 1 0 0 0-1 1v.5a1 1 0 0 0 1 1h2a1 1 0 0 0 1-1v-.5Z"></path>
  <path d="M11 14.5a1 1 0 0 0-1-1H8a1 1 0 0 0-1 1v.5a1 1 0 0 0 1 1h2a1 1 0 0 0 1-1v-.5Z"></path>
  <path d="M16 4H8a2 2 0 0 0-2 2v2h12V6a2 2 0 0 0-2-2Z"></path>
  <path d="M18 8H6a2 2 0 0 0-2 2v9a2 2 0 0 0 2 2h12a2 2 0 0 0 2-2v-9a2 2 0 0 0-2-2Z"></path>
</svg>